<?xml version="1.0" encoding="UTF-8"?>
<svg version="1.1" xmlns="http://www.w3.org/2000/svg" width="500" height="500">
<path d="M0 0 C165 0 330 0 500 0 C500 165 500 330 500 500 C335 500 170 500 0 500 C0 335 0 170 0 0 Z " fill="#1649FE" transform="translate(0,0)"/>
<path d="M0 0 C0 4.28450515 -2.47250221 6.50388228 -5.0625 9.6875 C-5.56112549 10.31092285 -6.05975098 10.9343457 -6.57348633 11.57666016 C-10.25926114 16.15903911 -14.04160506 20.64981854 -18 25 C-21.14885543 23.46235798 -24.19481474 21.7777683 -27.25 20.0625 C-39.82440689 13.19764404 -52.79005894 11.38660657 -67 13 C-74.24407727 15.15163241 -79.88857083 18.62019612 -84 25 C-86.14240582 31.42721745 -86.18207081 39.49583753 -84.01171875 45.9296875 C-78.42225382 56.03795929 -69.261399 61.14926933 -59.09350586 65.71923828 C-34.44131125 76.84282213 -8.88106315 89.08100528 2.2734375 115.02734375 C4.4545089 120.94906986 4.22083586 126.75158287 4.25 133 C4.2809375 134.61068359 4.2809375 134.61068359 4.3125 136.25390625 C4.38264695 150.82693597 0.14619155 165.3766117 -10.03125 176.2578125 C-27.36745334 191.59897657 -46.98045246 198.42945572 -70.0625 198.3125 C-71.82968384 198.30404053 -71.82968384 198.30404053 -73.63256836 198.29541016 C-93.14403121 198.02709267 -116.63574569 194.68438345 -133 183 C-134.31868016 180.18055568 -133.99066356 178.97142084 -133.01196289 175.97558594 C-132.5039917 174.82348633 -131.99602051 173.67138672 -131.47265625 172.484375 C-131.20488876 171.86854553 -130.93712128 171.25271606 -130.66123962 170.6182251 C-129.80566575 168.6572659 -128.9343853 166.70375344 -128.0625 164.75 C-127.47876765 163.41973111 -126.89607289 162.08900641 -126.31445312 160.7578125 C-124.88829266 157.49983804 -123.44796531 154.24835216 -122 151 C-118.90542084 152.50192402 -116.26790938 154.20174706 -113.5 156.25 C-98.92321493 166.48566952 -81.91034847 172.45281591 -64 170 C-55.31811988 167.83643496 -46.94824348 164.14819983 -41.40625 156.921875 C-37.11300706 149.7187674 -36.91658826 142.17403331 -38 134 C-41.45610235 122.55070941 -50.01383978 116.56448924 -60 111 C-63.52505294 109.22901977 -67.10272629 107.5834674 -70.6875 105.9375 C-79.07097286 101.99601649 -87.28274909 97.82301068 -95.375 93.3125 C-96.77238403 92.54764282 -96.77238403 92.54764282 -98.19799805 91.76733398 C-111.7100631 84.11648294 -121.13698865 73.86560341 -126 59 C-126.35707031 57.92105469 -126.71414062 56.84210938 -127.08203125 55.73046875 C-130.49793822 41.84880425 -128.19102278 25.84694506 -121.125 13.5 C-120.11431885 11.97895001 -119.07445031 10.47669427 -118 9 C-117.54882812 8.36707031 -117.09765625 7.73414063 -116.6328125 7.08203125 C-105.82623228 -6.74672818 -86.63012717 -13.33074339 -69.80078125 -15.64453125 C-45.3168263 -17.93439754 -21.12061017 -12.86395695 0 0 Z " fill="#FDFDFF" transform="translate(316,151)"/>
<path d="M0 0 C0.7209082 0.00249756 1.44181641 0.00499512 2.18457031 0.00756836 C3.53953613 0.02122437 3.53953613 0.02122437 4.921875 0.03515625 C9.253125 0.06609375 9.253125 0.06609375 13.671875 0.09765625 C13.671875 10.32765625 13.671875 20.55765625 13.671875 31.09765625 C9.711875 31.42765625 5.751875 31.75765625 1.671875 32.09765625 C-4.46037478 35.03777601 -6.62897146 36.8124369 -9.328125 43.09765625 C-9.78033805 46.34081867 -9.78033805 46.34081867 -9.72875977 49.78637695 C-9.74209854 51.09826492 -9.75543732 52.41015289 -9.7691803 53.76179504 C-9.76931556 55.18234253 -9.76943208 56.60289001 -9.76953125 58.0234375 C-9.78131868 59.49547123 -9.79468623 60.96749307 -9.80955505 62.4394989 C-9.84566083 66.30755707 -9.86591219 70.17550998 -9.88110352 74.04370117 C-9.90596613 80.22301598 -9.94599505 86.40209788 -10.00300407 92.58119774 C-10.01917675 94.7264149 -10.02309678 96.8714076 -10.02601624 99.01667786 C-10.10941818 114.58414754 -13.76976261 125.61221621 -24.3984375 137.22265625 C-29.415625 142.09765625 -29.415625 142.09765625 -32.328125 142.09765625 C-31.3690625 143.02578125 -31.3690625 143.02578125 -30.390625 143.97265625 C-29.36662079 145.01120597 -28.3463822 146.0534712 -27.328125 147.09765625 C-26.626875 147.80277344 -25.925625 148.50789062 -25.203125 149.234375 C-13.76080056 161.23721871 -10.02741903 173.29401744 -10.08429527 189.55151367 C-10.08995329 191.63805255 -10.08062663 193.72404879 -10.0670929 195.81054688 C-10.03022677 201.73700614 -10.01141699 207.66327258 -10.02270508 213.58984375 C-10.02858446 217.23037238 -10.01016921 220.87012729 -9.97681618 224.51049805 C-9.96891311 225.88824296 -9.9700695 227.26607335 -9.98084068 228.64379883 C-10.04040554 236.60115906 -9.94155446 243.02621118 -4.328125 249.09765625 C1.36956867 253.40566854 5.92018146 252.45168179 13.671875 253.09765625 C13.671875 263.32765625 13.671875 273.55765625 13.671875 284.09765625 C-7.32998819 284.84772279 -7.32998819 284.84772279 -17.328125 279.09765625 C-18.14667969 278.64003906 -18.96523437 278.18242187 -19.80859375 277.7109375 C-31.1927616 270.75076788 -37.64157248 259.74667075 -41.328125 247.09765625 C-41.58641052 244.00027466 -41.58641052 244.00027466 -41.59936523 240.66845703 C-41.60955185 239.41340363 -41.61973846 238.15835022 -41.63023376 236.86526489 C-41.63164525 235.87031195 -41.63164525 235.87031195 -41.63308525 234.85525894 C-41.63677598 232.76048662 -41.65357564 230.66617644 -41.67384338 228.57150269 C-41.72899485 222.61953359 -41.75988015 216.66749782 -41.78442383 210.71533203 C-41.80038007 207.06428447 -41.83068005 203.41356706 -41.86918831 199.7626915 C-41.88076506 198.37937828 -41.88676801 196.99600585 -41.88686943 195.6126442 C-41.78477284 183.5969921 -41.78477284 183.5969921 -46.91870117 173.01538086 C-47.48049072 172.51530518 -48.04228027 172.01522949 -48.62109375 171.5 C-49.24781982 170.92950928 -49.8745459 170.35901855 -50.52026367 169.77124023 C-51.50796753 168.91187866 -51.50796753 168.91187866 -52.515625 168.03515625 C-53.18891846 167.42808838 -53.86221191 166.82102051 -54.5559082 166.19555664 C-58.59247344 162.56932437 -62.70476394 159.02952982 -66.8125 155.484375 C-70.45698298 152.14986094 -72.98542977 149.04708242 -73.56640625 144.046875 C-73.70808826 139.72930212 -73.69438228 136.23586289 -70.90234375 132.6796875 C-66.07729275 127.83069084 -60.56770446 123.71328584 -55.046875 119.6953125 C-53.9846875 118.92058594 -52.9225 118.14585937 -51.828125 117.34765625 C-50.8484375 116.6515625 -49.86875 115.95546875 -48.859375 115.23828125 C-45.30387316 112.23146797 -43.5265077 109.70699671 -42.94958496 105.02682495 C-42.94753052 103.88085846 -42.94547607 102.73489197 -42.94335938 101.55419922 C-42.93324829 100.2486911 -42.92313721 98.94318298 -42.91271973 97.59811401 C-42.91505363 96.5581106 -42.91505363 96.5581106 -42.91743469 95.49709702 C-42.92193836 93.30906023 -42.90783831 91.12182157 -42.88903809 88.93386841 C-42.85232938 84.28014399 -42.83857769 79.62650402 -42.828125 74.97265625 C-42.81598837 69.59585225 -42.79408709 64.21943803 -42.74812317 58.84280777 C-42.73470759 56.70533504 -42.73869685 54.56837484 -42.74353027 52.43087769 C-42.68167488 37.03415606 -38.76272611 24.56538618 -28.328125 13.09765625 C-20.78037613 5.97794607 -10.63569347 -0.07596924 0 0 Z " fill="#EDEDEF" transform="translate(133.328125,107.90234375)"/>
<path d="M0 0 C15.16968626 -0.57899566 27.20496061 0.43991132 39 11 C39.66515625 11.55042969 40.3303125 12.10085937 41.015625 12.66796875 C47.83698311 18.77334461 53.26189775 27.94455534 55 37 C55.09549404 39.18820634 55.13535975 41.3790565 55.1418457 43.56933594 C55.14532013 44.2203125 55.14879456 44.87128906 55.15237427 45.54199219 C55.15970907 46.95189313 55.16506654 48.36180545 55.16866493 49.77172089 C55.17586064 52.00906093 55.19155105 54.24618547 55.21000671 56.48345947 C55.26232372 62.84343473 55.31041193 69.20329082 55.32592773 75.56347656 C55.33605132 79.4586914 55.36548485 83.353361 55.40724754 87.24835968 C55.41949996 88.72656364 55.42468939 90.2048448 55.42244911 91.68309784 C55.4117952 101.00909084 55.50985569 108.39907911 62.375 115.43359375 C63.674375 116.42552734 63.674375 116.42552734 65 117.4375 C65.96035156 118.18515625 66.92070312 118.9328125 67.91015625 119.703125 C70.01452303 121.26743305 72.12365524 122.82017776 74.24609375 124.359375 C75.29925781 125.12765625 76.35242188 125.8959375 77.4375 126.6875 C78.40558594 127.37199219 79.37367188 128.05648437 80.37109375 128.76171875 C83.85926068 131.7315845 86.52930346 134.7762368 87.49609375 139.34375 C87.26978587 147.67188011 84.27832001 152.15919794 78.375 157.8671875 C75.82261121 160.1592998 73.1822543 162.29914727 70.5 164.4375 C61.6231103 171.47243377 61.6231103 171.47243377 56 181 C55.89763479 183.0476776 55.85419811 185.09848158 55.84228516 187.14868164 C55.82689194 189.05194969 55.82689194 189.05194969 55.81118774 190.9936676 C55.80603086 192.01119205 55.80603086 192.01119205 55.80076981 193.04927254 C55.78894099 195.18206552 55.76947407 197.31465961 55.74765015 199.44737244 C55.68619764 205.51131438 55.63219651 211.57523882 55.59863281 217.6394043 C55.57753541 221.3518623 55.54210657 225.06396149 55.49787521 228.77621269 C55.4838251 230.18298519 55.47501793 231.58982121 55.47182083 232.99666023 C55.43289502 248.49730518 52.07385053 259.7783593 41.375 271.25 C33.00247774 279.28155982 22.23509996 284.26686339 10.55883789 284.18017578 C9.73504639 284.16196777 8.91125488 284.14375977 8.0625 284.125 C4.0715625 284.063125 4.0715625 284.063125 0 284 C0 273.77 0 263.54 0 253 C3.63 252.67 7.26 252.34 11 252 C16.4633515 249.99933607 19.24814472 248.6482297 22.14225769 243.42431641 C23.87037211 238.53998681 23.50975906 233.34468966 23.45528984 228.21854591 C23.43319268 226.04253604 23.43718813 223.86790062 23.44776917 221.69181824 C23.46932136 216.28596526 23.45223731 210.88042421 23.42626953 205.47460938 C23.40470086 200.90348875 23.40315819 196.33325929 23.42918587 191.76215172 C23.43347809 189.63923702 23.40907376 187.5179506 23.38365173 185.3952179 C23.45024 172.3602037 27.55176191 161.95088914 36 152 C38.32239839 149.76027598 40.69387229 147.6498141 43.1796875 145.59375 C45.10006155 144.11516997 45.10006155 144.11516997 46 142 C45.41992188 141.731875 44.83984375 141.46375 44.2421875 141.1875 C33.98533083 135.75529717 28.39725505 125.72817384 25 115 C24.15528209 110.77188837 23.86719576 106.7550618 23.84228516 102.44726562 C23.83202301 101.16573608 23.82176086 99.88420654 23.81118774 98.56384277 C23.80774982 97.88649582 23.8043119 97.20914886 23.80076981 96.51127625 C23.7888895 94.37514295 23.76941665 92.23920364 23.74765015 90.10314941 C23.68632272 84.03351319 23.63197927 77.96390293 23.59863281 71.89404297 C23.57764001 68.17165808 23.54231025 64.44963838 23.49787521 60.72746277 C23.48376269 59.31459355 23.47500354 57.90165987 23.47182083 56.48872375 C23.46688931 54.50998086 23.44208127 52.5313181 23.41650391 50.55273438 C23.40841705 49.42943726 23.4003302 48.30614014 23.39199829 47.14880371 C22.86266183 42.89680401 21.40279579 39.50274053 18.46484375 36.35546875 C11.38128451 30.93862933 11.05214425 31.92101202 0 31 C0 20.77 0 10.54 0 0 Z " fill="#EEEEEF" transform="translate(355,108)"/>
</svg>
